<svg xmlns="http://www.w3.org/2000/svg" viewBox="0 0 64 64">
  <defs>
    <linearGradient id="bg" x1="0" y1="0.4" x2="1" y2="0.6" gradientUnits="objectBoundingBox">
      <stop offset="0%" stop-color="#d79800"/>
      <stop offset="55%" stop-color="#96a300"/>
      <stop offset="100%" stop-color="#25ab3a"/>
    </linearGradient>
  </defs>
  <rect width="64" height="64" rx="14" ry="14" fill="url(#bg)"/>
  <g transform="translate(12, 12) scale(1.667)" stroke="#221300" stroke-width="2" stroke-linecap="round" stroke-linejoin="round" fill="none">
    <path d="M10 14.66v1.626a2 2 0 0 1-.976 1.696A5 5 0 0 0 7 21.978"/>
    <path d="M14 14.66v1.626a2 2 0 0 0 .976 1.696A5 5 0 0 1 17 21.978"/>
    <path d="M18 9h1.5a1 1 0 0 0 0-5H18"/>
    <path d="M4 22h16"/>
    <path d="M6 9a6 6 0 0 0 12 0V3a1 1 0 0 0-1-1H7a1 1 0 0 0-1 1z"/>
    <path d="M6 9H4.5a1 1 0 0 1 0-5H6"/>
  </g>
</svg>
